# xmcd
#
# Track frame offsets: 
#        150
#        17707
#        33770
#        52461
#        72993
#        89892
#        99866
#        116553
#        135412
#        158331
#
# Disc length: 2356 seconds
#
# Revision: 1
# Processed by: cddbd v1.5.2PL0 Copyright (c) Steve Scherf et al.
# Submitted via: ExactAudioCopy v1.0b3
#
DISCID=7e09320a
DTITLE=The Juke Hounds - Low Man On The Totem Pole
DYEAR=2012
DGENRE=Blues
TTITLE0=Wrong Side Of Town
TTITLE1=Wallet
TTITLE2=Can't Replay Life
TTITLE3=Forgiving Guy
TTITLE4=Don't Stop
TTITLE5=Bang Bang
TTITLE6=Nothin' Turned Out
TTITLE7=Midnight Train
TTITLE8=Them Changes
TTITLE9=Dust My Broom
EXTD=
EXTT0=
EXTT1=
EXTT2=
EXTT3=
EXTT4=
EXTT5=
EXTT6=
EXTT7=
EXTT8=
EXTT9=
PLAYORDER=
